<svg width="64" height="64" viewBox="0 0 64 64" fill="none" xmlns="http://www.w3.org/2000/svg">
<path d="M29.374 7.50278C29.4883 6.89116 29.8128 6.33874 30.2915 5.94122C30.7701 5.54369 31.3727 5.32608 31.9949 5.32608C32.6171 5.32608 33.2197 5.54369 33.6984 5.94122C34.177 6.33874 34.5016 6.89116 34.6158 7.50278L37.4181 22.3217C37.6171 23.3753 38.1291 24.3444 38.8872 25.1025C39.6454 25.8607 40.6145 26.3727 41.668 26.5717L56.487 29.3739C57.0986 29.4882 57.651 29.8127 58.0485 30.2914C58.4461 30.77 58.6637 31.3726 58.6637 31.9948C58.6637 32.617 58.4461 33.2196 58.0485 33.6983C57.651 34.177 57.0986 34.5015 56.487 34.6157L41.668 37.418C40.6145 37.617 39.6454 38.129 38.8872 38.8871C38.1291 39.6453 37.6171 40.6144 37.4181 41.6679L34.6158 56.4869C34.5016 57.0985 34.177 57.6509 33.6984 58.0484C33.2197 58.446 32.6171 58.6636 31.9949 58.6636C31.3727 58.6636 30.7701 58.446 30.2915 58.0484C29.8128 57.6509 29.4883 57.0985 29.374 56.4869L26.5718 41.6679C26.3728 40.6144 25.8608 39.6453 25.1026 38.8871C24.3445 38.129 23.3754 37.617 22.3218 37.418L7.50287 34.6157C6.89125 34.5015 6.33883 34.177 5.94131 33.6983C5.54378 33.2196 5.32617 32.617 5.32617 31.9948C5.32617 31.3726 5.54378 30.77 5.94131 30.2914C6.33883 29.8127 6.89125 29.4882 7.50287 29.3739L22.3218 26.5717C23.3754 26.3727 24.3445 25.8607 25.1026 25.1025C25.8608 24.3444 26.3728 23.3753 26.5718 22.3217L29.374 7.50278Z" stroke="#028550" stroke-width="5.33247" stroke-linecap="round" stroke-linejoin="round"/>
<path d="M53.3247 5.33246V15.9974" stroke="#028550" stroke-width="5.33247" stroke-linecap="round" stroke-linejoin="round"/>
<path d="M58.6571 10.6649H47.9922" stroke="#028550" stroke-width="5.33247" stroke-linecap="round" stroke-linejoin="round"/>
<path d="M10.665 58.6572C13.61 58.6572 15.9975 56.2698 15.9975 53.3247C15.9975 50.3797 13.61 47.9922 10.665 47.9922C7.71995 47.9922 5.33252 50.3797 5.33252 53.3247C5.33252 56.2698 7.71995 58.6572 10.665 58.6572Z" stroke="#028550" stroke-width="5.33247" stroke-linecap="round" stroke-linejoin="round"/>
</svg>
