<svg width="20" height="20" viewBox="0 0 20 20" fill="none" xmlns="http://www.w3.org/2000/svg">
<g clip-path="url(#clip0_84_2012)">
<path d="M9.1767 2.34383C9.21239 2.15275 9.31378 1.98018 9.46331 1.85599C9.61284 1.7318 9.8011 1.66382 9.99548 1.66382C10.1899 1.66382 10.3781 1.7318 10.5276 1.85599C10.6772 1.98018 10.7786 2.15275 10.8143 2.34383L11.6897 6.97332C11.7519 7.30246 11.9118 7.6052 12.1487 7.84206C12.3855 8.07891 12.6883 8.23886 13.0174 8.30103L17.6469 9.17645C17.838 9.21214 18.0105 9.31353 18.1347 9.46307C18.2589 9.6126 18.3269 9.80086 18.3269 9.99524C18.3269 10.1896 18.2589 10.3779 18.1347 10.5274C18.0105 10.6769 17.838 10.7783 17.6469 10.814L13.0174 11.6894C12.6883 11.7516 12.3855 11.9116 12.1487 12.1484C11.9118 12.3853 11.7519 12.688 11.6897 13.0172L10.8143 17.6466C10.7786 17.8377 10.6772 18.0103 10.5276 18.1345C10.3781 18.2587 10.1899 18.3267 9.99548 18.3267C9.8011 18.3267 9.61284 18.2587 9.46331 18.1345C9.31378 18.0103 9.21239 17.8377 9.1767 17.6466L8.30127 13.0172C8.2391 12.688 8.07915 12.3853 7.8423 12.1484C7.60545 11.9116 7.3027 11.7516 6.97356 11.6894L2.34407 10.814C2.153 10.7783 1.98042 10.6769 1.85623 10.5274C1.73204 10.3779 1.66406 10.1896 1.66406 9.99524C1.66406 9.80086 1.73204 9.6126 1.85623 9.46307C1.98042 9.31353 2.153 9.21214 2.34407 9.17645L6.97356 8.30103C7.3027 8.23886 7.60545 8.07891 7.8423 7.84206C8.07915 7.6052 8.2391 7.30246 8.30127 6.97332L9.1767 2.34383Z" stroke="#0055AA" stroke-width="1.66588" stroke-linecap="round" stroke-linejoin="round"/>
<path d="M16.6592 1.66577V4.99754" stroke="#0055AA" stroke-width="1.66588" stroke-linecap="round" stroke-linejoin="round"/>
<path d="M18.3249 3.33179H14.9932" stroke="#0055AA" stroke-width="1.66588" stroke-linecap="round" stroke-linejoin="round"/>
<path d="M3.3319 18.3247C4.25194 18.3247 4.99778 17.5788 4.99778 16.6588C4.99778 15.7388 4.25194 14.9929 3.3319 14.9929C2.41186 14.9929 1.66602 15.7388 1.66602 16.6588C1.66602 17.5788 2.41186 18.3247 3.3319 18.3247Z" stroke="#0055AA" stroke-width="1.66588" stroke-linecap="round" stroke-linejoin="round"/>
</g>
<defs>
<clipPath id="clip0_84_2012">
<rect width="19.9906" height="19.9906" fill="white"/>
</clipPath>
</defs>
</svg>
