<svg width="28" height="28" viewBox="0 0 28 28" fill="none" xmlns="http://www.w3.org/2000/svg">
<path d="M19.8841 23.651C18.7412 24.7589 17.4934 24.5839 16.2921 24.0591C15.021 23.5227 13.8547 23.4993 12.5136 24.0591C10.8342 24.7822 9.94791 24.5723 8.94496 23.651C3.2538 17.7849 4.09348 8.85161 10.5543 8.52507C12.1287 8.6067 13.225 9.38807 14.1463 9.45805C15.5224 9.17815 16.8403 8.37346 18.3097 8.47842C20.0707 8.61837 21.4002 9.3181 22.2749 10.5776C18.6363 12.7584 19.4993 17.5516 22.8346 18.8928C22.1699 20.6421 21.3069 22.3798 19.8724 23.6626L19.8841 23.651ZM14.0297 8.4551C13.8547 5.85442 15.9656 3.70858 18.3913 3.49866C18.7295 6.50751 15.6624 8.74665 14.0297 8.4551Z" fill="#0A0A0A"/>
</svg>
