<svg width="64" height="64" viewBox="0 0 64 64" fill="none" xmlns="http://www.w3.org/2000/svg">
<path d="M26.6626 31.9949H37.3275" stroke="white" stroke-width="5.33247" stroke-linecap="round" stroke-linejoin="round"/>
<path d="M26.6626 21.3299H37.3275" stroke="white" stroke-width="5.33247" stroke-linecap="round" stroke-linejoin="round"/>
<path d="M37.3275 55.991V47.9923C37.3275 46.578 36.7657 45.2217 35.7657 44.2216C34.7657 43.2216 33.4093 42.6598 31.9951 42.6598C30.5808 42.6598 29.2245 43.2216 28.2244 44.2216C27.2244 45.2217 26.6626 46.578 26.6626 47.9923V55.991" stroke="white" stroke-width="5.33247" stroke-linecap="round" stroke-linejoin="round"/>
<path d="M15.9975 26.6623H10.665C9.25073 26.6623 7.8944 27.2242 6.89436 28.2242C5.89433 29.2242 5.33252 30.5806 5.33252 31.9948V50.6585C5.33252 52.0727 5.89433 53.4291 6.89436 54.4291C7.8944 55.4291 9.25073 55.991 10.665 55.991H53.3248C54.739 55.991 56.0954 55.4291 57.0954 54.4291C58.0954 53.4291 58.6573 52.0727 58.6573 50.6585V23.9961C58.6573 22.5818 58.0954 21.2255 57.0954 20.2255C56.0954 19.2254 54.739 18.6636 53.3248 18.6636H47.9923" stroke="white" stroke-width="5.33247" stroke-linecap="round" stroke-linejoin="round"/>
<path d="M15.9976 55.991V13.3312C15.9976 11.9169 16.5594 10.5606 17.5594 9.56056C18.5594 8.56053 19.9158 7.99872 21.33 7.99872H42.6599C44.0742 7.99872 45.4305 8.56053 46.4306 9.56056C47.4306 10.5606 47.9924 11.9169 47.9924 13.3312V55.991" stroke="white" stroke-width="5.33247" stroke-linecap="round" stroke-linejoin="round"/>
</svg>
