<svg width="64" height="64" viewBox="0 0 64 64" fill="none" xmlns="http://www.w3.org/2000/svg">
<path d="M53.3248 34.661C53.3248 47.9922 43.993 54.6578 32.9015 58.5239C32.3206 58.7207 31.6898 58.7113 31.1151 58.4972C19.9969 54.6578 10.665 47.9922 10.665 34.661V15.9974C10.665 15.2903 10.9459 14.6121 11.446 14.1121C11.946 13.6121 12.6241 13.3311 13.3313 13.3311C18.6637 13.3311 25.3293 10.1317 29.9686 6.07898C30.5334 5.59639 31.252 5.33124 31.9949 5.33124C32.7379 5.33124 33.4564 5.59639 34.0213 6.07898C38.6872 10.1583 45.3261 13.3311 50.6586 13.3311C51.3657 13.3311 52.0439 13.6121 52.5439 14.1121C53.0439 14.6121 53.3248 15.2903 53.3248 15.9974V34.661Z" stroke="white" stroke-width="5.33247" stroke-linecap="round" stroke-linejoin="round"/>
</svg>
