<svg width="64" height="64" viewBox="0 0 64 64" fill="none" xmlns="http://www.w3.org/2000/svg">
<path d="M10.6651 37.3273C10.1605 37.329 9.66585 37.1875 9.23851 36.9193C8.81118 36.6511 8.46872 36.2671 8.25093 35.812C8.03314 35.3568 7.94896 34.8493 8.00817 34.3482C8.06738 33.8471 8.26754 33.3732 8.58541 32.9813L34.9812 5.7857C35.1792 5.55716 35.449 5.40272 35.7463 5.34773C36.0437 5.29274 36.3509 5.34048 36.6175 5.4831C36.8841 5.62572 37.0944 5.85475 37.2137 6.1326C37.333 6.41045 37.3543 6.72062 37.2741 7.01217L32.1549 23.0629C32.004 23.4669 31.9533 23.9015 32.0072 24.3294C32.0611 24.7573 32.218 25.1657 32.4645 25.5197C32.7109 25.8736 33.0395 26.1625 33.4221 26.3615C33.8048 26.5605 34.2299 26.6637 34.6612 26.6623H53.3249C53.8294 26.6606 54.3241 26.8021 54.7514 27.0703C55.1788 27.3386 55.5212 27.7226 55.739 28.1777C55.9568 28.6328 56.041 29.1404 55.9818 29.6414C55.9226 30.1425 55.7224 30.6165 55.4045 31.0083L29.0088 58.2039C28.8108 58.4325 28.541 58.5869 28.2436 58.6419C27.9463 58.6969 27.6391 58.6492 27.3724 58.5065C27.1058 58.3639 26.8956 58.1349 26.7763 57.857C26.6569 57.5792 26.6356 57.269 26.7158 56.9775L31.835 40.9267C31.9859 40.5227 32.0366 40.0881 31.9827 39.6602C31.9288 39.2323 31.7719 38.8239 31.5255 38.47C31.279 38.116 30.9504 37.8272 30.5678 37.6281C30.1852 37.4291 29.76 37.3259 29.3287 37.3273H10.6651Z" stroke="#028550" stroke-width="5.33247" stroke-linecap="round" stroke-linejoin="round"/>
</svg>
