<svg width="28" height="28" viewBox="0 0 28 28" fill="none" xmlns="http://www.w3.org/2000/svg">
<path d="M13.9947 11.6622C13.3761 11.6622 12.7828 11.908 12.3454 12.3454C11.908 12.7828 11.6622 13.3761 11.6622 13.9947C11.6622 15.1842 11.5456 16.9219 11.359 18.6596" stroke="white" stroke-width="2.33244" stroke-linecap="round" stroke-linejoin="round"/>
<path d="M16.3271 15.3008C16.3271 18.0764 16.3271 22.7413 15.1609 25.6569" stroke="white" stroke-width="2.33244" stroke-linecap="round" stroke-linejoin="round"/>
<path d="M20.1639 24.514C20.3039 23.8143 20.6654 21.8317 20.7471 20.992" stroke="white" stroke-width="2.33244" stroke-linecap="round" stroke-linejoin="round"/>
<path d="M2.3324 13.9947C2.3324 11.547 3.10254 9.16133 4.53373 7.17566C5.96493 5.18998 7.98461 3.70495 10.3067 2.93093C12.6288 2.1569 15.1356 2.13311 17.4719 2.86293C19.8083 3.59276 21.8558 5.03919 23.3244 6.99735" stroke="white" stroke-width="2.33244" stroke-linecap="round" stroke-linejoin="round"/>
<path d="M2.3324 18.6595H2.34406" stroke="white" stroke-width="2.33244" stroke-linecap="round" stroke-linejoin="round"/>
<path d="M25.4236 18.6596C25.6568 16.3271 25.5764 12.4156 25.4236 11.6622" stroke="white" stroke-width="2.33244" stroke-linecap="round" stroke-linejoin="round"/>
<path d="M5.83105 22.7413C6.41417 20.992 6.99728 17.4933 6.99728 13.9947C6.9961 13.2003 7.13019 12.4116 7.39379 11.6622" stroke="white" stroke-width="2.33244" stroke-linecap="round" stroke-linejoin="round"/>
<path d="M10.0878 25.6569C10.3327 24.8872 10.6126 24.1175 10.7525 23.3244" stroke="white" stroke-width="2.33244" stroke-linecap="round" stroke-linejoin="round"/>
<path d="M10.496 7.93032C11.56 7.31599 12.7671 6.99266 13.9958 6.99286C15.2244 6.99306 16.4314 7.31677 17.4952 7.93145C18.5591 8.54612 19.4424 9.43009 20.0562 10.4944C20.67 11.5588 20.9928 12.766 20.992 13.9947V16.3271" stroke="white" stroke-width="2.33244" stroke-linecap="round" stroke-linejoin="round"/>
</svg>
