<svg width="64" height="64" viewBox="0 0 64 64" fill="none" xmlns="http://www.w3.org/2000/svg">
<path d="M31.9949 26.6624C30.5807 26.6624 29.2243 27.2242 28.2243 28.2242C27.2243 29.2242 26.6625 30.5806 26.6625 31.9948C26.6625 34.7144 26.3958 38.6871 25.9692 42.6598" stroke="#028550" stroke-width="5.33247" stroke-linecap="round" stroke-linejoin="round"/>
<path d="M37.3274 34.981C37.3274 41.3267 37.3274 51.9916 34.6611 58.6572" stroke="#028550" stroke-width="5.33247" stroke-linecap="round" stroke-linejoin="round"/>
<path d="M46.0991 56.0443C46.4191 54.4445 47.2456 49.9119 47.4322 47.9922" stroke="#028550" stroke-width="5.33247" stroke-linecap="round" stroke-linejoin="round"/>
<path d="M5.33252 31.9948C5.33252 26.3989 7.09323 20.9447 10.3653 16.4051C13.6373 11.8654 18.2547 8.47028 23.5635 6.70068C28.8723 4.93108 34.6033 4.8767 39.9447 6.54524C45.2862 8.21377 49.9672 11.5206 53.3248 15.9974" stroke="#028550" stroke-width="5.33247" stroke-linecap="round" stroke-linejoin="round"/>
<path d="M5.33252 42.6598H5.35918" stroke="#028550" stroke-width="5.33247" stroke-linecap="round" stroke-linejoin="round"/>
<path d="M58.124 42.6598C58.6573 37.3273 58.4733 28.3847 58.124 26.6624" stroke="#028550" stroke-width="5.33247" stroke-linecap="round" stroke-linejoin="round"/>
<path d="M13.3311 51.9916C14.6642 47.9922 15.9973 39.9935 15.9973 31.9948C15.9946 30.1788 16.3012 28.3755 16.9038 26.6624" stroke="#028550" stroke-width="5.33247" stroke-linecap="round" stroke-linejoin="round"/>
<path d="M23.063 58.6572C23.6229 56.8975 24.2628 55.1377 24.5827 53.3247" stroke="#028550" stroke-width="5.33247" stroke-linecap="round" stroke-linejoin="round"/>
<path d="M23.9961 18.1304C26.4288 16.7259 29.1884 15.9867 31.9974 15.9872C34.8064 15.9876 37.5657 16.7277 39.998 18.133C42.4302 19.5383 44.4495 21.5592 45.8528 23.9926C47.2562 26.4259 47.994 29.1859 47.9922 31.9949V37.3273" stroke="#028550" stroke-width="5.33247" stroke-linecap="round" stroke-linejoin="round"/>
</svg>
