<svg width="760" height="910" viewBox="0 0 760 910" fill="none" xmlns="http://www.w3.org/2000/svg">
<g clip-path="url(#clip0_614_5)">
<path d="M472.994 806.157C459.432 838.374 450.467 873.336 447.033 910L734.032 844.639C747.594 812.43 756.552 777.461 759.993 740.797L472.994 806.157Z" fill="#0055AA"/>
<path d="M734.032 648.826C747.594 616.616 756.559 581.647 759.993 544.983L536.43 595.923V497.998L734.025 453.012C747.587 420.802 756.552 385.833 759.986 349.169L536.423 400.066V47.8978C502.166 68.504 471.743 95.9332 447.012 128.288V420.433L357.602 440.793V0C323.345 20.599 292.922 48.0354 268.191 80.3898V461.146L68.1345 506.689C54.5725 538.899 45.601 573.868 42.1598 610.532L268.191 559.071V682.39L25.9543 737.538C12.3923 769.747 3.42761 804.716 -0.00683594 841.38L253.547 783.654C274.188 779.054 291.928 765.981 303.462 747.989L349.962 674.133V674.118C354.789 666.477 357.602 657.264 357.602 647.341V538.711L447.012 518.351V714.201L734.025 648.811L734.032 648.826Z" fill="#0055AA"/>
</g>
<defs>
<clipPath id="clip0_614_5">
<rect width="760" height="910" fill="white"/>
</clipPath>
</defs>
</svg>
