<svg width="760" height="902" viewBox="0 0 760 902" fill="none" xmlns="http://www.w3.org/2000/svg">
<path d="M734.039 648.826C747.601 616.616 756.566 581.647 760 544.983L536.436 595.923V497.998L734.032 453.012C747.594 420.802 756.559 385.833 759.993 349.169L536.43 400.066V47.8978C502.173 68.504 471.75 95.9332 447.019 128.288V420.433L357.608 440.793V0C323.352 20.599 292.929 48.0354 268.198 80.3898V270.768V461.146L68.1413 506.689C54.5793 538.899 45.6078 573.868 42.1666 610.532L268.198 559.071V682.39L25.9612 737.538C12.3992 769.747 3.43445 804.716 0 841.38L253.554 783.654C274.195 779.054 291.935 765.981 303.469 747.989L349.969 674.133V674.118C354.796 666.477 357.608 657.264 357.608 647.341V538.711L447.019 518.351V714.201L734.032 648.811L734.039 648.826Z" fill="#EF4444"/>
<path d="M472.961 797.361C459.399 829.577 450.434 864.539 447 901.203L734 835.843C747.562 803.633 756.519 768.664 759.961 732L472.961 797.361Z" fill="#EF4444"/>
</svg>
