<svg width="768" height="910" viewBox="0 0 768 910" fill="none" xmlns="http://www.w3.org/2000/svg">
<g filter="url(#filter0_d_756_211)">
<path d="M361.108 441.42L361.72 441.28L451.13 420.92L451.52 420.832V128.456C476.012 96.4478 506.086 69.2769 539.93 48.7852V400.692L540.541 400.553L763.429 349.811C759.96 386.083 751.072 420.685 737.67 452.581L540.325 497.511L539.937 497.599V596.55L540.548 596.41L763.436 545.624C759.968 581.89 751.082 616.486 737.685 648.377L451.52 713.573V517.724L450.908 517.863L361.497 538.223L361.108 538.312V647.341C361.108 657.168 358.323 666.289 353.546 673.851L353.469 673.974V673.988L307.048 747.72C295.58 765.609 277.947 778.597 257.445 783.165L257.443 783.166L4.56348 840.738C8.03185 804.466 16.9203 769.864 30.3223 737.968L272.309 682.877L272.698 682.788V558.444L272.087 558.583L46.7295 609.89C50.2046 573.617 59.1017 539.015 72.5039 507.119L272.309 461.633L272.698 461.545V80.5586C297.191 48.5501 327.264 21.3716 361.108 0.886719V441.42Z" fill="#22C55E"/>
<path d="M361.108 441.42L361.72 441.28L451.13 420.92L451.52 420.832V128.456C476.012 96.4478 506.086 69.2769 539.93 48.7852V400.692L540.541 400.553L763.429 349.811C759.96 386.083 751.072 420.685 737.67 452.581L540.325 497.511L539.937 497.599V596.55L540.548 596.41L763.436 545.624C759.968 581.89 751.082 616.486 737.685 648.377L451.52 713.573V517.724L450.908 517.863L361.497 538.223L361.108 538.312V647.341C361.108 657.168 358.323 666.289 353.546 673.851L353.469 673.974V673.988L307.048 747.72C295.58 765.609 277.947 778.597 257.445 783.165L257.443 783.166L4.56348 840.738C8.03185 804.466 16.9203 769.864 30.3223 737.968L272.309 682.877L272.698 682.788V558.444L272.087 558.583L46.7295 609.89C50.2046 573.617 59.1017 539.015 72.5039 507.119L272.309 461.633L272.698 461.545V80.5586C297.191 48.5501 327.264 21.3716 361.108 0.886719V441.42Z" stroke="black"/>
<path d="M361.108 441.42L361.72 441.28L451.13 420.92L451.52 420.832V128.456C476.012 96.4478 506.086 69.2769 539.93 48.7852V400.692L540.541 400.553L763.429 349.811C759.96 386.083 751.072 420.685 737.67 452.581L540.325 497.511L539.937 497.599V596.55L540.548 596.41L763.436 545.624C759.968 581.89 751.082 616.486 737.685 648.377L451.52 713.573V517.724L450.908 517.863L361.497 538.223L361.108 538.312V647.341C361.108 657.168 358.323 666.289 353.546 673.851L353.469 673.974V673.988L307.048 747.72C295.58 765.609 277.947 778.597 257.445 783.165L257.443 783.166L4.56348 840.738C8.03185 804.466 16.9203 769.864 30.3223 737.968L272.309 682.877L272.698 682.788V558.444L272.087 558.583L46.7295 609.89C50.2046 573.617 59.1017 539.015 72.5039 507.119L272.309 461.633L272.698 461.545V80.5586C297.191 48.5501 327.264 21.3716 361.108 0.886719V441.42Z" stroke="black" stroke-opacity="0.2"/>
<path d="M763.396 732.641C759.922 768.914 751.039 803.516 737.637 835.412L451.563 900.562C455.032 864.289 463.921 829.693 477.323 797.79L763.396 732.641Z" fill="#22C55E"/>
<path d="M763.396 732.641C759.922 768.914 751.039 803.516 737.637 835.412L451.563 900.562C455.032 864.289 463.921 829.693 477.323 797.79L763.396 732.641Z" stroke="black"/>
<path d="M763.396 732.641C759.922 768.914 751.039 803.516 737.637 835.412L451.563 900.562C455.032 864.289 463.921 829.693 477.323 797.79L763.396 732.641Z" stroke="black" stroke-opacity="0.2"/>
</g>
<defs>
<filter id="filter0_d_756_211" x="0" y="0" width="768" height="909.203" filterUnits="userSpaceOnUse" color-interpolation-filters="sRGB">
<feFlood flood-opacity="0" result="BackgroundImageFix"/>
<feColorMatrix in="SourceAlpha" type="matrix" values="0 0 0 0 0 0 0 0 0 0 0 0 0 0 0 0 0 0 127 0" result="hardAlpha"/>
<feOffset dy="4"/>
<feGaussianBlur stdDeviation="2"/>
<feComposite in2="hardAlpha" operator="out"/>
<feColorMatrix type="matrix" values="0 0 0 0 0 0 0 0 0 0 0 0 0 0 0 0 0 0 0.25 0"/>
<feBlend mode="normal" in2="BackgroundImageFix" result="effect1_dropShadow_756_211"/>
<feBlend mode="normal" in="SourceGraphic" in2="effect1_dropShadow_756_211" result="shape"/>
</filter>
</defs>
</svg>
