<svg width="64" height="64" viewBox="0 0 64 64" fill="none" xmlns="http://www.w3.org/2000/svg">
<path d="M50.6611 18.6646V10.6655C50.6611 9.95832 50.3802 9.28012 49.8801 8.78008C49.3801 8.28004 48.7019 7.99911 47.9947 7.99911H13.3319C11.9176 7.99911 10.5612 8.56096 9.56107 9.56104C8.56099 10.5611 7.99915 11.9175 7.99915 13.3319C7.99915 14.7462 8.56099 16.1026 9.56107 17.1027C10.5612 18.1028 11.9176 18.6646 13.3319 18.6646H53.3275C54.0346 18.6646 54.7128 18.9455 55.2129 19.4456C55.7129 19.9456 55.9938 20.6238 55.9938 21.331V31.9965M55.9938 31.9965H47.9947C46.5804 31.9965 45.224 32.5583 44.2239 33.5584C43.2238 34.5585 42.662 35.9149 42.662 37.3292C42.662 38.7435 43.2238 40.0999 44.2239 41.1C45.224 42.1001 46.5804 42.6619 47.9947 42.6619H55.9938C56.701 42.6619 57.3792 42.381 57.8792 41.881C58.3793 41.3809 58.6602 40.7027 58.6602 39.9956V34.6628C58.6602 33.9557 58.3793 33.2775 57.8792 32.7774C57.3792 32.2774 56.701 31.9965 55.9938 31.9965Z" stroke="#028550" stroke-width="5.33274" stroke-linecap="round" stroke-linejoin="round"/>
<path d="M7.99915 13.3318V50.661C7.99915 52.0754 8.56099 53.4318 9.56107 54.4319C10.5612 55.4319 11.9176 55.9938 13.3319 55.9938H53.3275C54.0346 55.9938 54.7128 55.7129 55.2129 55.2128C55.7129 54.7128 55.9938 54.0346 55.9938 53.3274V42.6619" stroke="#028550" stroke-width="5.33274" stroke-linecap="round" stroke-linejoin="round"/>
</svg>
